<?xml version="1.0" encoding="UTF-8" standalone="no"?>
<!DOCTYPE svg PUBLIC "-//W3C//DTD SVG 1.1//EN" "http://www.w3.org/Graphics/SVG/1.1/DTD/svg11.dtd">
<svg width="100%" height="100%" viewBox="0 0 19384 6877" version="1.1" xmlns="http://www.w3.org/2000/svg" xmlns:xlink="http://www.w3.org/1999/xlink" xml:space="preserve" xmlns:serif="http://www.serif.com/" style="fill-rule:evenodd;clip-rule:evenodd;stroke-linejoin:round;stroke-miterlimit:2;">
    <g transform="matrix(4.16667,0,0,4.16667,0,0)">
        <g id="Artboard1" transform="matrix(1,0,0,1.0465,-1.24345e-14,0)">
            <rect x="0" y="0" width="4652.16" height="1577.14" style="fill:none;"/>
            <g transform="matrix(0.998199,-0.0688795,0,0.953843,-9.17381,1582.76)">
                <path d="M9.19,-195.475L9.19,-230.499L195.662,-230.499L195.662,-195.475L123.484,-195.475L123.484,0L81.557,0L81.557,-195.475L9.19,-195.475Z" style="fill:rgb(97,97,97);fill-rule:nonzero;"/>
            </g>
            <g transform="matrix(0.998199,-0.0688795,0,0.953843,-9.17381,1582.76)">
                <path d="M307.985,3.094C287.565,3.094 269.238,-1.599 253.004,-10.984C236.77,-20.369 223.961,-33.884 214.577,-51.53C205.194,-69.176 200.502,-90.364 200.502,-115.095C200.502,-139.971 205.194,-161.257 214.577,-178.955C223.961,-196.653 236.77,-210.183 253.004,-219.547C269.238,-228.911 287.565,-233.593 307.985,-233.593C328.468,-233.593 346.785,-228.911 362.936,-219.547C379.087,-210.183 391.849,-196.653 401.222,-178.955C410.595,-161.257 415.281,-139.971 415.281,-115.095C415.281,-90.322 410.595,-69.113 401.222,-51.467C391.849,-33.821 379.087,-20.316 362.936,-10.952C346.785,-1.588 328.468,3.094 307.985,3.094ZM307.985,-34.282C320.685,-34.282 331.904,-37.381 341.643,-43.579C351.382,-49.776 359.007,-58.888 364.52,-70.913C370.032,-82.938 372.788,-97.666 372.788,-115.095C372.788,-132.627 370.032,-147.432 364.52,-159.509C359.007,-171.586 351.382,-180.723 341.643,-186.921C331.904,-193.118 320.685,-196.217 307.985,-196.217C295.327,-196.217 284.114,-193.118 274.344,-186.921C264.574,-180.723 256.906,-171.586 251.342,-159.509C245.777,-147.432 242.995,-132.627 242.995,-115.095C242.995,-97.666 245.777,-82.938 251.342,-70.913C256.906,-58.888 264.574,-49.776 274.344,-43.579C284.114,-37.381 295.327,-34.282 307.985,-34.282Z" style="fill:rgb(97,97,97);fill-rule:nonzero;"/>
            </g>
            <g transform="matrix(0.998199,-0.0688795,0,0.953843,-9.17381,1582.76)">
                <path d="M484.061,-230.499L531.825,-230.499L589.001,-128.399L591.448,-128.399L648.563,-230.499L696.391,-230.499L611.283,-85.949L611.283,0L569.106,0L569.106,-85.949L484.061,-230.499Z" style="fill:rgb(97,97,97);fill-rule:nonzero;"/>
            </g>
            <g transform="matrix(0.998199,-0.0688795,0,0.953843,-9.17381,1582.76)">
                <path d="M858.813,-230.499L901.117,-230.499L901.117,-79.947C901.117,-63.467 897.179,-48.962 889.302,-36.431C881.424,-23.901 870.372,-14.109 856.146,-7.054C841.92,-0 825.298,3.527 806.281,3.527C787.264,3.527 770.637,-0 756.4,-7.054C742.163,-14.109 731.101,-23.901 723.214,-36.431C715.326,-48.962 711.383,-63.467 711.383,-79.947L711.383,-230.499L753.687,-230.499L753.687,-83.351C753.687,-73.719 755.842,-65.17 760.151,-57.703C764.46,-50.237 770.558,-44.374 778.445,-40.114C786.333,-35.854 795.611,-33.724 806.281,-33.724C816.993,-33.724 826.272,-35.854 834.117,-40.114C841.963,-44.374 848.04,-50.237 852.349,-57.703C856.659,-65.17 858.813,-73.719 858.813,-83.351L858.813,-230.499Z" style="fill:rgb(97,97,97);fill-rule:nonzero;"/>
            </g>
            <g transform="matrix(0.998199,-0.0688795,0,0.953843,-9.17381,1582.76)">
                <path d="M931.926,0L931.926,-230.499L974.23,-230.499L974.23,-124.563L977.179,-124.563L1068.37,-230.499L1120.03,-230.499L1029.65,-127.038L1120.78,0L1069.88,0L1000.15,-98.758L974.23,-68.5L974.23,0L931.926,0Z" style="fill:rgb(97,97,97);fill-rule:nonzero;"/>
            </g>
            <g transform="matrix(0.998199,-0.0688795,0,0.953843,-9.17381,1582.76)">
                <path d="M1223.88,3.094C1203.46,3.094 1185.13,-1.599 1168.9,-10.984C1152.67,-20.369 1139.86,-33.884 1130.47,-51.53C1121.09,-69.176 1116.4,-90.364 1116.4,-115.095C1116.4,-139.971 1121.09,-161.257 1130.47,-178.955C1139.86,-196.653 1152.67,-210.183 1168.9,-219.547C1185.13,-228.911 1203.46,-233.593 1223.88,-233.593C1244.36,-233.593 1262.68,-228.911 1278.83,-219.547C1294.98,-210.183 1307.75,-196.653 1317.12,-178.955C1326.49,-161.257 1331.18,-139.971 1331.18,-115.095C1331.18,-90.322 1326.49,-69.113 1317.12,-51.467C1307.75,-33.821 1294.98,-20.316 1278.83,-10.952C1262.68,-1.588 1244.36,3.094 1223.88,3.094ZM1223.88,-34.282C1236.58,-34.282 1247.8,-37.381 1257.54,-43.579C1267.28,-49.776 1274.9,-58.888 1280.42,-70.913C1285.93,-82.938 1288.68,-97.666 1288.68,-115.095C1288.68,-132.627 1285.93,-147.432 1280.42,-159.509C1274.9,-171.586 1267.28,-180.723 1257.54,-186.921C1247.8,-193.118 1236.58,-196.217 1223.88,-196.217C1211.22,-196.217 1200.01,-193.118 1190.24,-186.921C1180.47,-180.723 1172.8,-171.586 1167.24,-159.509C1161.67,-147.432 1158.89,-132.627 1158.89,-115.095C1158.89,-97.666 1161.67,-82.938 1167.24,-70.913C1172.8,-58.888 1180.47,-49.776 1190.24,-43.579C1200.01,-37.381 1211.22,-34.282 1223.88,-34.282Z" style="fill:rgb(97,97,97);fill-rule:nonzero;"/>
            </g>
            <g transform="matrix(0.998199,-0.0688795,0,0.953843,-9.17381,1582.76)">
                <path d="M1548.45,-230.499L1548.45,0L1510.61,0L1400.59,-156.987L1398.45,-156.987L1398.45,0L1356.15,0L1356.15,-230.499L1394.12,-230.499L1504.08,-73.452L1506.15,-73.452L1506.15,-230.499L1548.45,-230.499Z" style="fill:rgb(97,97,97);fill-rule:nonzero;"/>
            </g>
            <g transform="matrix(0.998199,-0.0688795,0,0.953843,-9.17381,1582.76)">
                <path d="M1639.01,0L1639.01,-230.499L1791.15,-230.499L1791.15,-195.475L1681.32,-195.475L1681.32,-133.659L1783.12,-133.659L1783.12,-99.13L1681.32,-99.13L1681.32,-35.025L1791.84,-35.025L1791.84,0L1639.01,0Z" style="fill:rgb(97,97,97);fill-rule:nonzero;"/>
            </g>
            <g transform="matrix(0.998199,-0.0688795,0,0.953843,-9.17381,1582.76)">
                <path d="M1819.08,0L1819.08,-230.499L1861.38,-230.499L1861.38,-35.025L1964.5,-35.025L1964.5,0L1819.08,0Z" style="fill:rgb(97,97,97);fill-rule:nonzero;"/>
            </g>
            <g transform="matrix(0.998199,-0.0688795,0,0.953843,-9.17381,1582.76)">
                <path d="M1985.83,0L1985.83,-230.499L2137.97,-230.499L2137.97,-195.475L2028.13,-195.475L2028.13,-133.659L2129.94,-133.659L2129.94,-99.13L2028.13,-99.13L2028.13,-35.025L2138.66,-35.025L2138.66,0L1985.83,0Z" style="fill:rgb(97,97,97);fill-rule:nonzero;"/>
            </g>
            <g transform="matrix(0.998199,-0.0688795,0,0.953843,-9.17381,1582.76)">
                <path d="M2267.07,3.094C2246.61,3.094 2228.3,-1.599 2212.15,-10.984C2196,-20.369 2183.28,-33.884 2173.99,-51.53C2164.7,-69.176 2160.05,-90.364 2160.05,-115.095C2160.05,-139.971 2164.73,-161.257 2174.08,-178.955C2183.43,-196.653 2196.2,-210.183 2212.37,-219.547C2228.54,-228.911 2246.77,-233.593 2267.07,-233.593C2280,-233.593 2292.07,-231.778 2303.3,-228.148C2314.52,-224.517 2324.52,-219.232 2333.28,-212.291C2342.05,-205.351 2349.24,-196.863 2354.86,-186.828C2360.47,-176.792 2364.16,-165.381 2365.92,-152.592L2323.24,-152.592C2322.07,-159.523 2319.86,-165.68 2316.6,-171.064C2313.35,-176.448 2309.27,-181.012 2304.36,-184.755C2299.46,-188.498 2293.92,-191.344 2287.75,-193.293C2281.57,-195.243 2274.93,-196.217 2267.82,-196.217C2255.12,-196.217 2243.84,-193.077 2233.99,-186.796C2224.14,-180.516 2216.43,-171.337 2210.88,-159.261C2205.32,-147.185 2202.55,-132.463 2202.55,-115.095C2202.55,-97.542 2205.35,-82.753 2210.94,-70.728C2216.54,-58.704 2224.24,-49.623 2234.05,-43.487C2243.87,-37.351 2255.08,-34.282 2267.69,-34.282C2274.68,-34.282 2281.23,-35.205 2287.34,-37.051C2293.45,-38.897 2298.97,-41.63 2303.89,-45.25C2308.82,-48.87 2312.95,-53.289 2316.29,-58.507C2319.62,-63.725 2321.94,-69.737 2323.24,-76.544L2365.92,-76.544C2364.37,-65.509 2360.97,-55.175 2355.7,-45.543C2350.44,-35.91 2343.53,-27.459 2334.98,-20.188C2326.42,-12.917 2316.43,-7.219 2305.02,-3.094C2293.61,1.031 2280.96,3.094 2267.07,3.094Z" style="fill:rgb(97,97,97);fill-rule:nonzero;"/>
            </g>
            <g transform="matrix(0.998199,-0.0688795,0,0.953843,-9.17381,1582.76)">
                <path d="M2379.59,-195.475L2379.59,-230.499L2566.07,-230.499L2566.07,-195.475L2493.89,-195.475L2493.89,0L2451.96,0L2451.96,-195.475L2379.59,-195.475Z" style="fill:rgb(97,97,97);fill-rule:nonzero;"/>
            </g>
            <g transform="matrix(0.998199,-0.0688795,0,0.953843,-9.17381,1582.76)">
                <path d="M2678.39,3.094C2657.97,3.094 2639.64,-1.599 2623.41,-10.984C2607.17,-20.369 2594.36,-33.884 2584.98,-51.53C2575.6,-69.176 2570.91,-90.364 2570.91,-115.095C2570.91,-139.971 2575.6,-161.257 2584.98,-178.955C2594.36,-196.653 2607.17,-210.183 2623.41,-219.547C2639.64,-228.911 2657.97,-233.593 2678.39,-233.593C2698.87,-233.593 2717.19,-228.911 2733.34,-219.547C2749.49,-210.183 2762.25,-196.653 2771.62,-178.955C2781,-161.257 2785.68,-139.971 2785.68,-115.095C2785.68,-90.322 2781,-69.113 2771.62,-51.467C2762.25,-33.821 2749.49,-20.316 2733.34,-10.952C2717.19,-1.588 2698.87,3.094 2678.39,3.094ZM2678.39,-34.282C2691.09,-34.282 2702.31,-37.381 2712.05,-43.579C2721.78,-49.776 2729.41,-58.888 2734.92,-70.913C2740.43,-82.938 2743.19,-97.666 2743.19,-115.095C2743.19,-132.627 2740.43,-147.432 2734.92,-159.509C2729.41,-171.586 2721.78,-180.723 2712.05,-186.921C2702.31,-193.118 2691.09,-196.217 2678.39,-196.217C2665.73,-196.217 2654.52,-193.118 2644.75,-186.921C2634.98,-180.723 2627.31,-171.586 2621.74,-159.509C2616.18,-147.432 2613.4,-132.627 2613.4,-115.095C2613.4,-97.666 2616.18,-82.938 2621.74,-70.913C2627.31,-58.888 2634.98,-49.776 2644.75,-43.579C2654.52,-37.381 2665.73,-34.282 2678.39,-34.282Z" style="fill:rgb(97,97,97);fill-rule:nonzero;"/>
            </g>
            <g transform="matrix(0.998199,-0.0688795,0,0.953843,-9.17381,1582.76)">
                <path d="M2810.66,0L2810.66,-230.499L2898.4,-230.499C2916.33,-230.499 2931.4,-227.411 2943.6,-221.233C2955.81,-215.056 2965.06,-206.424 2971.36,-195.337C2977.66,-184.251 2980.81,-171.364 2980.81,-156.677C2980.81,-141.971 2977.64,-129.193 2971.32,-118.344C2964.99,-107.494 2955.64,-99.135 2943.29,-93.267C2930.94,-87.399 2915.74,-84.465 2897.71,-84.465L2835.39,-84.465L2835.39,-118.931L2892,-118.931C2902.54,-118.931 2911.17,-120.385 2917.89,-123.294C2924.6,-126.203 2929.56,-130.457 2932.76,-136.057C2935.96,-141.656 2937.56,-148.53 2937.56,-156.677C2937.56,-164.886 2935.95,-171.888 2932.71,-177.685C2929.48,-183.481 2924.51,-187.916 2917.79,-190.989C2911.08,-194.062 2902.41,-195.598 2891.81,-195.598L2852.96,-195.598L2852.96,0L2810.66,0ZM2942.02,0L2885.28,-104.513L2931.47,-104.513L2989.41,0L2942.02,0Z" style="fill:rgb(97,97,97);fill-rule:nonzero;"/>
            </g>
            <g transform="matrix(0.998199,-0.0688795,0,0.953843,-9.17381,1582.76)">
                <path d="M3034.78,0L2989.52,0L3071.99,-230.499L3124.15,-230.499L3206.43,0L3161.37,0L3098.92,-183.222L3097.04,-183.222L3034.78,0ZM3036.35,-90.406L3159.55,-90.406L3159.55,-56.866L3036.35,-56.866L3036.35,-90.406Z" style="fill:rgb(97,97,97);fill-rule:nonzero;"/>
            </g>
            <g transform="matrix(0.998199,-0.0688795,0,0.953843,-9.17381,1582.76)">
                <path d="M3222.06,0L3222.06,-230.499L3264.36,-230.499L3264.36,-35.025L3367.48,-35.025L3367.48,0L3222.06,0Z" style="fill:rgb(97,97,97);fill-rule:nonzero;"/>
            </g>
            <g transform="matrix(0.998199,-0.0688795,0,0.953843,-9.17381,1582.76)">
                <path d="M3448.56,0L3448.56,-230.499L3536.3,-230.499C3554.24,-230.499 3569.3,-227.411 3581.51,-221.233C3593.72,-215.056 3602.97,-206.424 3609.27,-195.337C3615.57,-184.251 3618.71,-171.364 3618.71,-156.677C3618.71,-141.971 3615.55,-129.193 3609.22,-118.344C3602.89,-107.494 3593.55,-99.135 3581.2,-93.267C3568.84,-87.399 3553.65,-84.465 3535.61,-84.465L3473.29,-84.465L3473.29,-118.931L3529.9,-118.931C3540.45,-118.931 3549.08,-120.385 3555.79,-123.294C3562.51,-126.203 3567.47,-130.457 3570.67,-136.057C3573.87,-141.656 3575.47,-148.53 3575.47,-156.677C3575.47,-164.886 3573.85,-171.888 3570.62,-177.685C3567.39,-183.481 3562.41,-187.916 3555.7,-190.989C3548.98,-194.062 3540.32,-195.598 3529.71,-195.598L3490.87,-195.598L3490.87,0L3448.56,0ZM3579.93,0L3523.18,-104.513L3569.38,-104.513L3627.31,0L3579.93,0Z" style="fill:rgb(97,97,97);fill-rule:nonzero;"/>
            </g>
            <g transform="matrix(0.998199,-0.0688795,0,0.953843,-9.17381,1582.76)">
                <path d="M3642.62,0L3642.62,-230.499L3794.76,-230.499L3794.76,-195.475L3684.92,-195.475L3684.92,-133.659L3786.72,-133.659L3786.72,-99.13L3684.92,-99.13L3684.92,-35.025L3795.45,-35.025L3795.45,0L3642.62,0Z" style="fill:rgb(97,97,97);fill-rule:nonzero;"/>
            </g>
            <g transform="matrix(0.998199,-0.0688795,0,0.953843,-9.17381,1582.76)">
                <path d="M3822.68,0L3822.68,-230.499L3972.62,-230.499L3972.62,-195.475L3864.98,-195.475L3864.98,-126.419L3962.2,-126.419L3962.2,-91.89L3864.98,-91.89L3864.98,0L3822.68,0Z" style="fill:rgb(97,97,97);fill-rule:nonzero;"/>
            </g>
            <g transform="matrix(0.998199,-0.0688795,0,0.953843,-9.17381,1582.76)">
                <path d="M4097.42,3.094C4077,3.094 4058.67,-1.599 4042.44,-10.984C4026.2,-20.369 4013.39,-33.884 4004.01,-51.53C3994.63,-69.176 3989.93,-90.364 3989.93,-115.095C3989.93,-139.971 3994.63,-161.257 4004.01,-178.955C4013.39,-196.653 4026.2,-210.183 4042.44,-219.547C4058.67,-228.911 4077,-233.593 4097.42,-233.593C4117.9,-233.593 4136.22,-228.911 4152.37,-219.547C4168.52,-210.183 4181.28,-196.653 4190.65,-178.955C4200.03,-161.257 4204.71,-139.971 4204.71,-115.095C4204.71,-90.322 4200.03,-69.113 4190.65,-51.467C4181.28,-33.821 4168.52,-20.316 4152.37,-10.952C4136.22,-1.588 4117.9,3.094 4097.42,3.094ZM4097.42,-34.282C4110.12,-34.282 4121.34,-37.381 4131.08,-43.579C4140.82,-49.776 4148.44,-58.888 4153.95,-70.913C4159.47,-82.938 4162.22,-97.666 4162.22,-115.095C4162.22,-132.627 4159.47,-147.432 4153.95,-159.509C4148.44,-171.586 4140.82,-180.723 4131.08,-186.921C4121.34,-193.118 4110.12,-196.217 4097.42,-196.217C4084.76,-196.217 4073.55,-193.118 4063.78,-186.921C4054.01,-180.723 4046.34,-171.586 4040.78,-159.509C4035.21,-147.432 4032.43,-132.627 4032.43,-115.095C4032.43,-97.666 4035.21,-82.938 4040.78,-70.913C4046.34,-58.888 4054.01,-49.776 4063.78,-43.579C4073.55,-37.381 4084.76,-34.282 4097.42,-34.282Z" style="fill:rgb(97,97,97);fill-rule:nonzero;"/>
            </g>
            <g transform="matrix(0.998199,-0.0688795,0,0.953843,-9.17381,1582.76)">
                <path d="M4229.69,0L4229.69,-230.499L4317.43,-230.499C4335.36,-230.499 4350.43,-227.411 4362.64,-221.233C4374.84,-215.056 4384.09,-206.424 4390.39,-195.337C4396.69,-184.251 4399.84,-171.364 4399.84,-156.677C4399.84,-141.971 4396.67,-129.193 4390.35,-118.344C4384.02,-107.494 4374.68,-99.135 4362.32,-93.267C4349.97,-87.399 4334.77,-84.465 4316.74,-84.465L4254.41,-84.465L4254.41,-118.931L4311.03,-118.931C4321.57,-118.931 4330.2,-120.385 4336.92,-123.294C4343.63,-126.203 4348.59,-130.457 4351.79,-136.057C4354.99,-141.656 4356.59,-148.53 4356.59,-156.677C4356.59,-164.886 4354.98,-171.888 4351.74,-177.685C4348.51,-183.481 4343.54,-187.916 4336.82,-190.989C4330.11,-194.062 4321.44,-195.598 4310.84,-195.598L4271.99,-195.598L4271.99,0L4229.69,0ZM4361.05,0L4304.31,-104.513L4350.51,-104.513L4408.44,0L4361.05,0Z" style="fill:rgb(97,97,97);fill-rule:nonzero;"/>
            </g>
            <g transform="matrix(0.998199,-0.0688795,0,0.953843,-9.17381,1582.76)">
                <path d="M4423.74,-230.499L4475.71,-230.499L4545.07,-63.552L4547.76,-63.552L4617.24,-230.499L4669.74,-230.499L4669.74,0L4628.23,0L4628.23,-158.41L4626.28,-158.41L4561.29,-0.742L4530.98,-0.742L4466.67,-158.657L4464.6,-158.657L4464.6,0L4423.74,0L4423.74,-230.499Z" style="fill:rgb(97,97,97);fill-rule:nonzero;"/>
            </g>
            <g transform="matrix(1.82231,-0.125746,0,0.476271,2.99698,530.328)">
                <path d="M105.101,0L204.093,1130.01L208.063,1130.01L307.382,0L403.507,0L261.966,1487.89L150.189,1487.89L8.425,0L105.101,0Z" style="fill:rgb(97,97,97);fill-rule:nonzero;"/>
            </g>
            <g transform="matrix(1.82231,-0.125746,0,0.476271,2.99698,530.328)">
                <path d="M582.585,1507.86C546.244,1507.86 513.532,1477.9 484.447,1417.99C455.363,1358.07 432.388,1271.23 415.522,1157.46C398.657,1043.69 390.224,906.183 390.224,744.943C390.224,582.642 398.657,444.44 415.522,330.336C432.388,216.232 455.363,129.322 484.447,69.604C513.532,9.887 546.244,-19.972 582.585,-19.972C618.997,-19.972 651.681,9.887 680.636,69.604C709.591,129.322 732.511,216.232 749.395,330.336C766.279,444.44 774.721,582.642 774.721,744.943C774.721,906.578 766.279,1044.28 749.395,1158.05C732.511,1271.82 709.591,1358.57 680.636,1418.29C651.681,1478 618.997,1507.86 582.585,1507.86ZM582.585,1229.87C603.639,1229.87 621.964,1211.26 637.562,1174.04C653.16,1136.82 665.259,1082.13 673.858,1009.97C682.457,937.802 686.757,849.462 686.757,744.943C686.757,639.759 682.457,550.919 673.858,478.423C665.259,405.927 653.16,351.07 637.562,313.852C621.964,276.634 603.639,258.025 582.585,258.025C561.64,258.025 543.35,276.634 527.715,313.852C512.079,351.07 499.916,405.927 491.225,478.423C482.534,550.919 478.189,639.759 478.189,744.943C478.189,849.462 482.534,937.802 491.225,1009.97C499.916,1082.13 512.079,1136.82 527.715,1174.04C543.35,1211.26 561.64,1229.87 582.585,1229.87Z" style="fill:rgb(97,97,97);fill-rule:nonzero;"/>
            </g>
            <g transform="matrix(1.82231,-0.125746,0,0.476271,2.99698,530.328)">
                <path d="M772.784,259.226L772.784,0L1109.99,0L1109.99,259.226L984.323,259.226L984.323,1487.89L898.671,1487.89L898.671,259.226L772.784,259.226Z" style="fill:rgb(97,97,97);fill-rule:nonzero;"/>
            </g>
            <g transform="matrix(1.82231,-0.125746,0,0.476271,2.99698,530.328)">
                <path d="M1133.37,1487.89L1133.37,0L1410.17,0L1410.17,259.226L1220.01,259.226L1220.01,609.136L1395.62,609.136L1395.62,863.572L1220.01,863.572L1220.01,1228.66L1410.61,1228.66L1410.61,1487.89L1133.37,1487.89Z" style="fill:rgb(97,97,97);fill-rule:nonzero;"/>
            </g>
            <g transform="matrix(1.82231,-0.125746,0,0.476271,2.99698,530.328)">
                <path d="M1512.06,0L1609.5,0L1703.09,641.091L1707.07,641.091L1800.77,0L1898.1,0L1748.29,962.229L1748.29,1487.89L1661.98,1487.89L1661.98,962.229L1512.06,0Z" style="fill:rgb(97,97,97);fill-rule:nonzero;"/>
            </g>
            <g transform="matrix(1.82231,-0.125746,0,0.476271,2.99698,530.328)">
                <path d="M1913.1,1487.89L1913.1,0L2189.9,0L2189.9,259.226L1999.74,259.226L1999.74,609.136L2175.35,609.136L2175.35,863.572L1999.74,863.572L1999.74,1228.66L2190.34,1228.66L2190.34,1487.89L1913.1,1487.89Z" style="fill:rgb(97,97,97);fill-rule:nonzero;"/>
            </g>
            <g transform="matrix(1.82231,-0.125746,0,0.476271,2.99698,530.328)">
                <path d="M2378.52,1509.06C2345.38,1509.06 2316.54,1490.72 2292.01,1454.04C2267.49,1417.36 2248.37,1362.73 2234.66,1290.17C2220.96,1217.61 2213.72,1127.73 2212.95,1020.55L2296.94,1020.55C2297.97,1070.09 2301.99,1111.56 2308.99,1144.98C2315.99,1178.39 2325.38,1203.49 2337.15,1220.27C2348.93,1237.05 2362.39,1245.44 2377.53,1245.44C2392.26,1245.44 2405.09,1237.71 2416,1222.27C2426.91,1206.82 2435.37,1185.28 2441.38,1157.65C2447.39,1130.03 2450.39,1097.91 2450.39,1061.29C2450.39,1028.01 2447.67,1000.15 2442.21,977.715C2436.75,955.283 2428.84,936.011 2418.48,919.898C2408.12,903.786 2395.46,889.405 2380.5,876.756L2335.64,836.813C2301.06,806.72 2273.79,758.955 2253.82,693.516C2233.85,628.078 2223.86,540.301 2223.86,430.187C2223.86,340.179 2230.59,261.457 2244.03,194.022C2257.48,126.586 2275.92,74.062 2299.34,36.448C2322.77,-1.165 2349.45,-19.972 2379.4,-19.972C2409.94,-19.972 2436.57,-1.032 2459.3,36.846C2482.02,74.725 2499.75,127.317 2512.48,194.622C2525.22,261.928 2531.78,339.648 2532.19,427.784L2448.63,427.784C2447.12,369.335 2440.3,323.902 2428.16,291.485C2416.01,259.067 2399.54,242.859 2378.74,242.859C2364.7,242.859 2352.76,250.015 2342.91,264.328C2333.07,278.641 2325.59,298.446 2320.48,323.744C2315.37,349.041 2312.82,377.865 2312.82,410.215C2312.82,445.238 2315.75,474.499 2321.61,497.997C2327.47,521.495 2335.34,540.733 2345.2,555.712C2355.07,570.69 2365.88,583.308 2377.64,593.564L2414.34,625.909C2432.17,640.555 2448.58,660.061 2463.59,684.427C2478.6,708.794 2491.67,738.585 2502.78,773.801C2513.9,809.016 2522.5,850.525 2528.58,898.327C2534.66,946.129 2537.7,1000.99 2537.7,1062.9C2537.7,1153.56 2531.39,1232.35 2518.77,1299.25C2506.14,1366.16 2487.98,1417.85 2464.28,1454.34C2440.58,1490.82 2411.99,1509.06 2378.52,1509.06Z" style="fill:rgb(97,97,97);fill-rule:nonzero;"/>
            </g>
            <g transform="matrix(1,-0.0690038,0,0.955564,-17.8487,410.798)">
                <path d="M19.386,0L19.386,-230.084L108.915,-230.084C125.727,-230.084 139.718,-227.485 150.891,-222.286C162.064,-217.087 170.433,-209.989 175.998,-200.992C181.563,-191.995 184.346,-181.803 184.346,-170.416C184.346,-161.11 182.529,-153.127 178.895,-146.466C175.262,-139.805 170.375,-134.411 164.235,-130.283C158.095,-126.154 151.203,-123.184 143.559,-121.373L143.559,-119.088C151.893,-118.717 159.86,-116.256 167.462,-111.706C175.063,-107.157 181.291,-100.764 186.147,-92.528C191.002,-84.293 193.43,-74.369 193.43,-62.757C193.43,-50.815 190.517,-40.114 184.691,-30.652C178.864,-21.191 170.078,-13.717 158.331,-8.23C146.584,-2.743 131.783,0 113.927,0L19.386,0ZM61.614,-34.713L107.161,-34.713C122.468,-34.713 133.53,-37.647 140.348,-43.515C147.166,-49.383 150.575,-56.867 150.575,-65.968C150.575,-72.845 148.868,-79.011 145.454,-84.467C142.041,-89.923 137.18,-94.247 130.874,-97.438C124.567,-100.63 117.101,-102.225 108.475,-102.225L61.614,-102.225L61.614,-34.713ZM61.614,-132.12L103.588,-132.12C110.877,-132.12 117.435,-133.463 123.261,-136.15C129.087,-138.838 133.687,-142.636 137.059,-147.547C140.431,-152.458 142.118,-158.27 142.118,-164.982C142.118,-173.834 138.954,-181.153 132.626,-186.939C126.298,-192.724 116.932,-195.617 104.527,-195.617L61.614,-195.617L61.614,-132.12Z" style="fill:rgb(97,97,97);fill-rule:nonzero;"/>
            </g>
            <g transform="matrix(1,-0.0690038,0,0.955564,-17.8487,410.798)">
                <path d="M215.161,0L215.161,-230.084L367.028,-230.084L367.028,-195.123L257.389,-195.123L257.389,-133.418L359.008,-133.418L359.008,-98.951L257.389,-98.951L257.389,-34.961L367.715,-34.961L367.715,0L215.161,0Z" style="fill:rgb(97,97,97);fill-rule:nonzero;"/>
            </g>
            <g transform="matrix(1,-0.0690038,0,0.955564,-17.8487,410.798)">
                <path d="M484.552,0L439.38,0L521.702,-230.084L573.765,-230.084L655.901,0L610.917,0L548.58,-182.892L546.701,-182.892L484.552,0ZM486.118,-90.243L609.099,-90.243L609.099,-56.763L486.118,-56.763L486.118,-90.243Z" style="fill:rgb(97,97,97);fill-rule:nonzero;"/>
            </g>
            <g transform="matrix(1,-0.0690038,0,0.955564,-17.8487,410.798)">
                <path d="M699.49,0L633.771,-230.084L679.193,-230.084L721.293,-61.027L723.361,-61.027L768.281,-230.084L809.758,-230.084L854.489,-60.781L856.743,-60.781L898.658,-230.084L944.268,-230.084L878.36,0L836.57,0L789.959,-161.274L788.08,-161.274L741.469,0L699.49,0Z" style="fill:rgb(97,97,97);fill-rule:nonzero;"/>
            </g>
            <g transform="matrix(1,-0.0690038,0,0.955564,-17.8487,410.798)">
                <path d="M958.763,0L958.763,-230.084L1110.63,-230.084L1110.63,-195.123L1000.99,-195.123L1000.99,-133.418L1102.61,-133.418L1102.61,-98.951L1000.99,-98.951L1000.99,-34.961L1111.32,-34.961L1111.32,0L958.763,0Z" style="fill:rgb(97,97,97);fill-rule:nonzero;"/>
            </g>
            <g transform="matrix(1,-0.0690038,0,0.955564,-17.8487,410.798)">
                <path d="M1220.82,3.52C1202.7,3.52 1186.95,0.746 1173.58,-4.803C1160.22,-10.351 1149.78,-18.453 1142.28,-29.108C1134.77,-39.763 1130.71,-52.708 1130.11,-67.944L1171.64,-67.944C1172.31,-59.956 1174.83,-53.296 1179.21,-47.963C1183.58,-42.63 1189.34,-38.635 1196.48,-35.98C1203.63,-33.324 1211.61,-31.996 1220.45,-31.996C1229.61,-31.996 1237.7,-33.375 1244.71,-36.134C1251.71,-38.893 1257.19,-42.743 1261.14,-47.684C1265.09,-52.625 1267.06,-58.39 1267.06,-64.979C1267.06,-70.95 1265.29,-75.881 1261.76,-79.773C1258.24,-83.665 1253.33,-86.939 1247.06,-89.594C1240.78,-92.25 1233.44,-94.607 1225.02,-96.666L1198.52,-103.461C1179.33,-108.278 1164.18,-115.665 1153.08,-125.62C1141.98,-135.575 1136.43,-148.819 1136.43,-165.351C1136.43,-178.919 1140.15,-190.784 1147.6,-200.945C1155.05,-211.106 1165.22,-219.018 1178.11,-224.68C1191.01,-230.342 1205.6,-233.173 1221.89,-233.173C1238.47,-233.173 1253.02,-230.336 1265.52,-224.664C1278.03,-218.991 1287.85,-211.168 1294.97,-201.192C1302.09,-191.217 1305.8,-179.764 1306.09,-166.833L1265.24,-166.833C1264.22,-176.634 1259.8,-184.252 1251.98,-189.688C1244.15,-195.124 1233.94,-197.842 1221.32,-197.842C1212.59,-197.842 1205.08,-196.555 1198.77,-193.982C1192.46,-191.408 1187.63,-187.856 1184.27,-183.327C1180.9,-178.797 1179.22,-173.629 1179.22,-167.822C1179.22,-161.502 1181.19,-156.299 1185.11,-152.211C1189.04,-148.124 1194.05,-144.845 1200.13,-142.374C1206.22,-139.904 1212.45,-137.866 1218.82,-136.26L1240.56,-130.761C1249.33,-128.703 1257.8,-125.954 1265.98,-122.516C1274.15,-119.078 1281.51,-114.754 1288.03,-109.545C1294.56,-104.335 1299.72,-98.04 1303.52,-90.66C1307.32,-83.279 1309.22,-74.596 1309.22,-64.61C1309.22,-51.143 1305.74,-39.288 1298.76,-29.045C1291.79,-18.802 1281.72,-10.814 1268.56,-5.08C1255.41,0.653 1239.49,3.52 1220.82,3.52Z" style="fill:rgb(97,97,97);fill-rule:nonzero;"/>
            </g>
            <g transform="matrix(1,-0.0690038,0,0.955564,-17.8487,410.798)">
                <path d="M1433.04,3.088C1412.66,3.088 1394.37,-1.596 1378.16,-10.964C1361.96,-20.332 1349.17,-33.823 1339.8,-51.437C1330.44,-69.051 1325.75,-90.202 1325.75,-114.888C1325.75,-139.719 1330.44,-160.967 1339.8,-178.633C1349.17,-196.298 1361.96,-209.805 1378.16,-219.152C1394.37,-228.499 1412.66,-233.173 1433.04,-233.173C1453.49,-233.173 1471.77,-228.499 1487.89,-219.152C1504.02,-209.805 1516.76,-196.298 1526.11,-178.633C1535.47,-160.967 1540.15,-139.719 1540.15,-114.888C1540.15,-90.16 1535.47,-68.989 1526.11,-51.374C1516.76,-33.76 1504.02,-20.28 1487.89,-10.932C1471.77,-1.585 1453.49,3.088 1433.04,3.088ZM1433.04,-34.221C1445.72,-34.221 1456.92,-37.314 1466.64,-43.5C1476.36,-49.687 1483.97,-58.782 1489.48,-70.785C1494.98,-82.789 1497.73,-97.49 1497.73,-114.888C1497.73,-132.389 1494.98,-147.166 1489.48,-159.222C1483.97,-171.277 1476.36,-180.398 1466.64,-186.584C1456.92,-192.77 1445.72,-195.864 1433.04,-195.864C1420.41,-195.864 1409.21,-192.77 1399.46,-186.584C1389.71,-180.398 1382.06,-171.277 1376.5,-159.222C1370.95,-147.166 1368.17,-132.389 1368.17,-114.888C1368.17,-97.49 1370.95,-82.789 1376.5,-70.785C1382.06,-58.782 1389.71,-49.687 1399.46,-43.5C1409.21,-37.314 1420.41,-34.221 1433.04,-34.221Z" style="fill:rgb(97,97,97);fill-rule:nonzero;"/>
            </g>
            <g transform="matrix(1,-0.0690038,0,0.955564,-17.8487,410.798)">
                <path d="M1565.07,-230.084L1616.95,-230.084L1686.17,-63.437L1688.87,-63.437L1758.22,-230.084L1810.63,-230.084L1810.63,0L1769.19,0L1769.19,-158.125L1767.24,-158.125L1702.37,-0.741L1672.11,-0.741L1607.93,-158.371L1605.86,-158.371L1605.86,0L1565.07,0L1565.07,-230.084Z" style="fill:rgb(97,97,97);fill-rule:nonzero;"/>
            </g>
            <g transform="matrix(1,-0.0690038,0,0.955564,-17.8487,410.798)">
                <path d="M1841.38,0L1841.38,-230.084L1993.25,-230.084L1993.25,-195.123L1883.61,-195.123L1883.61,-133.418L1985.23,-133.418L1985.23,-98.951L1883.61,-98.951L1883.61,-34.961L1993.94,-34.961L1993.94,0L1841.38,0Z" style="fill:rgb(97,97,97);fill-rule:nonzero;"/>
            </g>
            <g transform="matrix(1,-0.0690038,0,0.955564,-17.8487,410.798)">
                <path d="M2110.77,0L2065.6,0L2147.92,-230.084L2199.99,-230.084L2282.12,0L2237.14,0L2174.8,-182.892L2172.92,-182.892L2110.77,0ZM2112.34,-90.243L2235.32,-90.243L2235.32,-56.763L2112.34,-56.763L2112.34,-90.243Z" style="fill:rgb(97,97,97);fill-rule:nonzero;"/>
            </g>
            <g transform="matrix(1,-0.0690038,0,0.955564,-17.8487,410.798)">
                <path d="M2489.68,-230.084L2489.68,0L2451.9,0L2342.07,-156.704L2339.94,-156.704L2339.94,0L2297.72,0L2297.72,-230.084L2335.62,-230.084L2445.38,-73.32L2447.45,-73.32L2447.45,-230.084L2489.68,-230.084Z" style="fill:rgb(97,97,97);fill-rule:nonzero;"/>
            </g>
            <g transform="matrix(1,-0.0690038,0,0.955564,-17.8487,410.798)">
                <path d="M2599.62,0L2540.41,0L2540.41,-36.074L2597.49,-36.074C2613.72,-36.074 2627.28,-38.987 2638.17,-44.813C2649.06,-50.639 2657.24,-59.43 2662.71,-71.187C2668.18,-82.944 2670.91,-97.635 2670.91,-115.259C2670.91,-132.8 2668.2,-147.403 2662.77,-159.066C2657.34,-170.729 2649.25,-179.469 2638.51,-185.286C2627.76,-191.102 2614.47,-194.011 2598.62,-194.011L2539.29,-194.011L2539.29,-230.084L2601.12,-230.084C2624.33,-230.084 2644.25,-225.493 2660.91,-216.31C2677.56,-207.126 2690.36,-193.955 2699.3,-176.794C2708.24,-159.633 2712.7,-139.122 2712.7,-115.259C2712.7,-91.313 2708.22,-70.729 2699.24,-53.506C2690.26,-36.284 2677.33,-23.06 2660.47,-13.836C2643.61,-4.612 2623.32,0 2599.62,0ZM2562.66,-230.084L2562.66,0L2520.43,0L2520.43,-230.084L2562.66,-230.084Z" style="fill:rgb(97,97,97);fill-rule:nonzero;"/>
            </g>
        </g>
    </g>
</svg>
